{"title":"The.Graham.Norton.Show.S20E01.720p.HDTV.HEVC.x265.sharpysword","uid":15928312,"size":414550559,"categoryP":"video","categoryS":"tv_shows","magnet":"?xt=urn:btih:989420af10c4e73f6b85023ddc4fc8a7c9f4372b&amp;dn=The.Graham.Norton.Show.S20E01.720p.HDTV.HEVC.x265.sharpysword&amp;tr=udp%3A%2F%2Ftracker.leechers-paradise.org%3A6969&amp;tr=udp%3A%2F%2Fzer0day.ch%3A1337&amp;tr=udp%3A%2F%2Fopen.demonii.com%3A1337&amp;tr=udp%3A%2F%2Ftracker.coppersurfer.tk%3A6969&amp;tr=udp%3A%2F%2Fexodus.desync.com%3A6969","seeders":12,"leechers":6,"uploader":"sharpysword","files":1,"time":1475331580,"description":"\nSource:The.Graham.Norton.Show.S20E01.720p.HDTV.x264-FTP.mkv\r\n\r\n2016-09-30 20E01Justin Timberlake, Anna Kendrick, Daniel Radcliffe, Robbie Williams\r\n\r\n\r\n  Duration: 00:48:37.69, start: 0.000000, bitrate: 1136 kb/s\r\n    Stream #0:0(eng): Video: hevc (Main), yuv420p(tv), 1280x720 [SAR 1:1 DAR 16:9], 25 fps, 25 tbr, 1k tbn, 25 tbc (default)\r\n    Metadata:\r\n      ENCODER         : Lavc57.48.101 libx265\r\n      DURATION        : 00:48:37.686000000\r\n    Stream #0:1(eng): Audio: aac (LC), 44100 Hz, stereo, fltp (default)\r\n    Metadata:\r\n      ENCODER         : Lavc57.48.101 libfdk_aac\r\n      DURATION        : 00:48:37.678000000","torrent":{"xt":"urn:btih:989420af10c4e73f6b85023ddc4fc8a7c9f4372b","amp;dn":"The.Graham.Norton.Show.S20E01.720p.HDTV.HEVC.x265.sharpysword","amp;tr":["udp%3A%2F%2Ftracker.leechers-paradise.org%3A6969","udp%3A%2F%2Fzer0day.ch%3A1337","udp%3A%2F%2Fopen.demonii.com%3A1337","udp%3A%2F%2Ftracker.coppersurfer.tk%3A6969","udp%3A%2F%2Fexodus.desync.com%3A6969"],"infoHash":"989420af10c4e73f6b85023ddc4fc8a7c9f4372b","infoHashBuffer":{"type":"Buffer","data":[152,148,32,175,16,196,231,63,107,133,2,61,220,79,200,167,201,244,55,43]},"announce":[],"urlList":[]}}